<svg xmlns="http://www.w3.org/2000/svg" xmlns:svg="http://www.w3.org/2000/svg" id="svg2987" width="16" height="16" version="1.1"><metadata id="metadata2992"/><path id="rect3760" d="M 4.4144161,7.1872393 11.016161,7.1872393 C 11.324667,7.1872393 11.573032,7.4356037 11.573032,7.7441104 11.573032,8.0526169 11.324667,8.3009815 11.016161,8.3009815 L 4.4144161,8.3009815 C 4.1059095,8.3009815 3.857545,8.0526169 3.857545,7.7441104 3.857545,7.4356037 4.1059095,7.1872393 4.4144161,7.1872393 z M 4.1626118,5.167558 C 2.1456062,5.1822174 0.52091548,6.2884401 0.52091548,7.6803286 0.52091548,9.0722167 2.1455529,10.193099 4.1626118,10.193099 6.9217317,10.193099 7.1103481,10.162933 7.1488029,9.1370067 L 3.5071066,9.1370067 C 2.7084258,9.1370067 2.0504279,8.5154262 2.0504279,7.7167455 2.0504279,6.9180649 2.7084258,6.260067 3.5071066,6.260067 L 7.1488029,6.260067 C 7.1364098,5.1685871 6.6843229,5.1492304 4.1626118,5.167558 z M 11.154668,5.167558 C 8.6329576,5.1125752 8.1808711,5.1685871 8.1684778,6.260067 L 11.883008,6.260067 C 12.681688,6.260067 13.339686,6.9180649 13.339686,7.7167455 13.339686,8.5154262 12.681688,9.1370067 11.883008,9.1370067 L 8.1684778,9.1370067 C 8.1810135,10.149974 8.2489282,10.174771 11.154668,10.193099 13.171688,10.205821 14.796365,9.0722167 14.796365,7.6803286 14.796365,6.2884401 13.171249,5.2115271 11.154668,5.167558 z" style="fill:#b3b3b3;fill-opacity:1;stroke:none"/><path id="path3770" d="M 2.679253,9.9188817 5.7171579,13.009064 14.003722,4.3501328" style="fill:none;stroke:#fff;stroke-width:3.20000005;stroke-linecap:round;stroke-linejoin:round;stroke-miterlimit:4;stroke-opacity:1;stroke-dasharray:none"/><path style="fill:none;stroke:#b3b3b3;stroke-width:1.5;stroke-linecap:round;stroke-linejoin:round;stroke-miterlimit:4;stroke-opacity:1;stroke-dasharray:none" id="path3794" d="M 3.0619365,10.240515 5.7449497,12.997378 13.813935,4.5045685"/></svg>